<?xml version="1.0" encoding="UTF-8" standalone="no"?>
<!-- Created with Inkscape (http://www.inkscape.org/) -->

<svg
   width="210mm"
   height="297mm"
   viewBox="0 0 210 297"
   version="1.1"
   id="svg5"
   xml:space="preserve"
   inkscape:version="1.2.2 (b0a8486541, 2022-12-01)"
   sodipodi:docname="white_cats.svg"
   xmlns:inkscape="http://www.inkscape.org/namespaces/inkscape"
   xmlns:sodipodi="http://sodipodi.sourceforge.net/DTD/sodipodi-0.dtd"
   xmlns="http://www.w3.org/2000/svg"
   xmlns:svg="http://www.w3.org/2000/svg"><sodipodi:namedview
     id="namedview7"
     pagecolor="#ffffff"
     bordercolor="#000000"
     borderopacity="0.25"
     inkscape:showpageshadow="2"
     inkscape:pageopacity="0.0"
     inkscape:pagecheckerboard="0"
     inkscape:deskcolor="#d1d1d1"
     inkscape:document-units="mm"
     showgrid="false"
     inkscape:zoom="0.90509668"
     inkscape:cx="592.20193"
     inkscape:cy="244.72524"
     inkscape:window-width="1666"
     inkscape:window-height="914"
     inkscape:window-x="0"
     inkscape:window-y="0"
     inkscape:window-maximized="1"
     inkscape:current-layer="layer1" /><defs
     id="defs2" /><g
     inkscape:label="Layer 1"
     inkscape:groupmode="layer"
     id="layer1"><rect
       style="fill:#000000;fill-opacity:1;stroke:none;stroke-width:13.9488"
       id="rect1318"
       width="328.08334"
       height="122.50208"
       x="0"
       y="0"
       ry="15.980871" /><g
       id="g2346"
       transform="matrix(1.0336943,0,0,0.99915154,40.451464,-44.986289)"><path
         style="fill:#ffffff;fill-opacity:1;stroke:none;stroke-width:1.57446;stroke-dasharray:none;stroke-opacity:1"
         d="m 151.94953,147.3656 c -1.64727,-0.21147 -3.63712,-0.98216 -4.62765,-1.79236 -0.32245,-0.26373 -0.35261,-0.32672 -0.4879,-1.01846 -0.65596,-3.35398 -1.87158,-6.33746 -4.42947,-10.8713 -2.12315,-3.76323 -3.00934,-5.4047 -3.61726,-6.70018 -2.56873,-5.47399 -3.64909,-6.75607 -5.29372,-6.28219 -0.73233,0.21101 -1.1867,0.72335 -1.8948,2.13655 -0.86497,1.72625 -1.24076,2.15357 -2.19534,2.49636 -0.39485,0.14181 -0.39485,0.14181 -1.04178,1.56559 -2.94918,6.49051 -5.32892,9.99478 -8.30084,12.22337 -0.29952,0.22458 -0.57477,0.43435 -0.61169,0.4661 -0.14887,0.12806 0.22472,0.75102 0.74682,1.24531 1.40245,1.3278 0.90978,2.40563 -1.33672,2.92437 -0.82143,0.18968 -3.83799,0.19033 -4.73736,7.5e-4 -0.61908,-0.13031 -0.61908,-0.13031 -0.9787,0.11233 -2.08022,1.40348 -5.08615,1.65638 -12.72827,1.07091 -1.198004,-0.0918 -2.781417,-0.19415 -3.518659,-0.22748 l -1.340436,-0.0606 -0.05366,-0.60009 c -0.187968,-2.10296 -1.067371,-3.10174 -4.328729,-4.91633 -1.721595,-0.95787 -1.355118,-0.92443 -2.420757,-0.22087 -9.886713,6.52771 -30.524372,4.52378 -39.735465,-3.85822 -2.710565,-2.46657 -3.059448,-2.66137 -6.869782,-3.83574 -3.231983,-0.99611 -4.411978,-1.69387 -5.073541,-3.00008 -0.397311,-0.78449 -0.376897,-2.61536 0.03304,-2.95737 1.710947,-1.42762 5.318219,-1.62238 9.202178,-0.49677 2.440673,0.70731 4.232486,1.75852 7.30321,4.28465 3.173591,2.61074 4.588359,3.34199 8.553528,4.42101 7.419689,2.0191 15.060606,2.10416 18.981919,0.2113 1.548371,-0.74741 2.583607,-1.62551 4.915891,-4.16978 0.918535,-1.00204 1.977862,-2.09301 2.354074,-2.42442 l 0.684009,-0.60257 0.638468,-1.93067 c 2.976186,-8.99966 6.005384,-13.33073 12.685442,-18.13737 3.88387,-2.79463 4.17922,-3.07946 8.47171,-8.170161 4.62304,-5.482664 8.43419,-8.337104 11.86334,-8.885288 0.87802,-0.140339 1.33622,-2.918684 0.78521,-4.761095 -0.23481,-0.785143 -0.8045,-2.000724 -1.80555,-3.852577 -1.68385,-3.11508 -2.5114,-6.850179 -3.09888,-13.986536 -0.70284,-8.537607 -0.70282,-8.500799 -0.004,-8.500799 0.25412,0 0.41186,0.08626 0.88742,0.485285 0.55081,0.462164 0.92251,0.879824 2.5446,2.859271 0.76674,0.935651 1.5954,1.68526 2.26676,2.050558 l 0.42267,0.229967 0.3229,-0.322817 c 0.37747,-0.377336 0.48573,-0.700294 0.59831,-1.784697 0.2915,-2.807549 0.53359,-3.335672 1.4848,-3.238926 0.62221,0.06326 0.85609,0.395841 1.1162,1.587286 0.22598,1.035067 0.37618,1.343119 0.62446,1.280824 0.9619,-0.241341 2.03107,-0.251862 4.96046,-0.04884 1.91078,0.132447 3.42969,-0.114374 4.37499,-0.71094 0.43047,-0.27166 0.51435,-0.26543 1.08414,0.08059 2.00135,1.215386 2.5375,3.36863 1.80725,7.25807 -0.11568,0.616105 -0.3023,1.610147 -0.41474,2.208975 -0.80536,4.289685 -0.33907,5.404422 3.88404,9.285535 2.08163,1.91305 2.69554,2.708765 4.85728,6.295707 1.34313,2.228652 2.81074,4.226025 3.10518,4.226025 0.0887,0 0.90924,-1.395329 2.8565,-4.857596 7.27592,-12.936829 9.83,-15.380313 14.01976,-13.412674 0.8255,0.387677 0.84686,0.412546 1.05557,1.2283 0.71752,2.804662 -0.65271,5.416821 -3.1777,6.057854 -0.57222,0.145276 -0.59994,0.16472 -1.01409,0.711653 -2.16965,2.86514 -3.56612,5.947577 -6.28537,13.873788 -1.98037,5.772524 -3.1595,8.565188 -4.65914,11.034778 -0.98507,1.6222 -2.63452,3.70551 -2.93384,3.70551 -0.93519,0 -3.48596,1.35904 -4.55316,2.42591 -2.65756,2.65674 -3.22095,7.07627 -1.38828,10.89061 0.87765,1.82665 0.82473,1.67175 1.68818,4.94135 2.6341,9.97449 4.50477,14.46447 6.79177,16.30147 1.04064,0.83588 1.30812,1.20304 1.3557,1.86084 0.14169,1.95814 -1.54368,2.95965 -4.36997,2.59681 z"
         id="path237" /><g
         aria-label="_(    )._"
         id="text1864"
         style="font-size:91.1527px;line-height:0;font-family:'DejaVu Serif';-inkscape-font-specification:'DejaVu Serif, Normal';fill:#010101;stroke-width:3.79803"><path
           d="m 11.562622,150.82955 v 3.56065 h -45.576351 v -3.56065 z"
           id="path1208"
           style="fill:#ffffff;fill-opacity:1" /><path
           d="m 40.626448,147.09086 q -10.815482,-4.85139 -16.334493,-15.35531 -5.519012,-10.54843 -5.519012,-26.34883 0,-15.844902 5.519012,-26.348827 5.519011,-10.548433 16.334493,-15.399822 v 4.3618 q -6.854256,4.717864 -9.836303,13.307938 -2.982046,8.545566 -2.982046,24.078911 0,15.48884 2.982046,24.07891 2.982047,8.54557 9.836303,13.26343 z"
           id="path1210"
           style="fill:#ffffff;fill-opacity:1" /><path
           d="m 169.47755,147.09086 v -4.3618 q 6.85426,-4.71786 9.8363,-13.26343 3.02656,-8.59007 3.02656,-24.07891 0,-15.533345 -3.02656,-24.078911 -2.98204,-8.590074 -9.8363,-13.307938 v -4.3618 q 10.85999,4.851389 16.379,15.399822 5.51901,10.503925 5.51901,26.348827 0,15.8004 -5.51901,26.34883 -5.51901,10.50392 -16.379,15.35531 z"
           id="path1212"
           style="fill:#ffffff;fill-opacity:1" /><path
           d="m 207.17597,128.26391 q 0,-2.49245 1.69131,-4.22827 1.69131,-1.73582 4.22827,-1.73582 2.44795,0 4.18377,1.73582 1.73582,1.73582 1.73582,4.22827 0,2.44795 -1.73582,4.18377 -1.73582,1.73582 -4.18377,1.73582 -2.53696,0 -4.22827,-1.69131 -1.69131,-1.73582 -1.69131,-4.22828 z"
           id="path1214"
           style="fill:#ffffff;fill-opacity:1" /><path
           d="m 273.13705,150.82955 v 3.56065 H 227.5607 v -3.56065 z"
           id="path1216"
           style="fill:#ffffff;fill-opacity:1" /></g></g></g></svg>
